<?xml version="1.0" encoding="UTF-8" standalone="no"?> <!-- Created with Vectornator for iOS (http://vectornator.io/) --><!DOCTYPE svg PUBLIC "-//W3C//DTD SVG 1.1//EN" "http://www.w3.org/Graphics/SVG/1.1/DTD/svg11.dtd">
<svg style="fill-rule:nonzero;clip-rule:evenodd;stroke-linecap:round;stroke-linejoin:round;" viewBox="0 0 130 130" version="1.1" xmlns:vectornator="http://vectornator.io" xml:space="preserve" xmlns:xlink="http://www.w3.org/1999/xlink" xmlns="http://www.w3.org/2000/svg" width="100%" height="100%">
<metadata>
<vectornator:setting key="WDUnits" value="Points"/>
<vectornator:setting key="WDSnapToPoints" value="false"/>
<vectornator:setting value="false" key="WDSnapToGrid"/>
<vectornator:setting value="false" key="WDSnapToEdges"/>
<vectornator:setting key="IsTimeLapseWatermarkDisabled" value="false"/>
<vectornator:setting value="false" key="WDIsolateActiveLayer"/>
<vectornator:setting value="true" key="WDRulersVisible"/>
<vectornator:setting key="VNSnapToGuides" value="true"/>
<vectornator:setting value="false" key="WDDynamicGuides"/>
<vectornator:setting value="false" key="WDOutlineMode"/>
<vectornator:setting value="true" key="VNDimensionsVisible"/>
<vectornator:setting key="WDCMYKEnabledKey" value="false"/>
<vectornator:setting value="false" key="WDDisplayWhiteBackground"/>
<vectornator:setting key="WDGuidesVisible" value="true"/>
<vectornator:setting key="UndoHistoryDisabled" value="true"/>
</metadata>
<defs/>
<g vectornator:layerName="Untitled" id="Untitled">
<path fill="#1868b7" d="M0+0L130+0L130+129.037L0+129.037L0+0Z" opacity="1"/>
<path stroke="#ffffff" opacity="1" stroke-linejoin="miter" stroke-width="4" d="M97.8619+7.03265L119.529+7.03265" stroke-linecap="butt" fill="none"/>
<path fill="none" stroke-width="4" opacity="1" stroke="#ffffff" d="M122.9+10.4073L122.9+31.9135" stroke-linejoin="miter" stroke-linecap="butt"/>
<path stroke-linecap="butt" opacity="1" d="M32.1381+122.004L10.4714+122.004" stroke="#ffffff" fill="none" stroke-linejoin="miter" stroke-width="4"/>
<path stroke="#ffffff" stroke-linejoin="miter" d="M7.10022+118.63L7.10022+97.1238" stroke-linecap="butt" fill="none" opacity="1" stroke-width="4"/>
<g opacity="1">
<path d="M26.5891+59.336C26.6574+59.8292+26.7917+60.1978+26.9919+60.442C27.3581+60.8863+27.9856+61.1085+28.8742+61.1085C29.4065+61.1085+29.8386+61.0499+30.1706+60.9327C30.8005+60.7081+31.1154+60.2906+31.1154+59.6802C31.1154+59.3238+30.9592+59.0479+30.6467+58.8526C30.3342+58.6622+29.8435+58.4937+29.1745+58.3472L28.0319+58.0909C26.9089+57.837+26.1325+57.5611+25.7028+57.2632C24.9753+56.7652+24.6115+55.9864+24.6115+54.9268C24.6115+53.96+24.9631+53.1568+25.6662+52.5172C26.3694+51.8775+27.4021+51.5577+28.7644+51.5577C29.9021+51.5577+30.8725+51.8592+31.6757+52.4622C32.479+53.0652+32.9001+53.9405+32.9392+55.088L30.7712+55.088C30.7321+54.4385+30.4489+53.9771+29.9216+53.7037C29.57+53.523+29.133+53.4327+28.6106+53.4327C28.0295+53.4327+27.5656+53.5499+27.219+53.7842C26.8723+54.0186+26.6989+54.3458+26.6989+54.7657C26.6989+55.1514+26.8698+55.4395+27.2116+55.6299C27.4314+55.7569+27.9001+55.9058+28.6179+56.0767L30.4782+56.5235C31.2937+56.7188+31.9089+56.98+32.3239+57.3072C32.9685+57.815+33.2907+58.5499+33.2907+59.5118C33.2907+60.4981+32.9135+61.3172+32.1591+61.9691C31.4048+62.6209+30.3391+62.9468+28.9621+62.9468C27.5559+62.9468+26.4499+62.6258+25.6443+61.9837C24.8386+61.3416+24.4358+60.459+24.4358+59.336L26.5891+59.336Z" fill="#ffffff" opacity="1"/>
<path d="M37.9123+58.5889L40.6516+58.5889L39.3039+54.3409L37.9123+58.5889ZM38.0515+51.8726L40.6003+51.8726L44.4235+62.6685L41.9773+62.6685L41.2815+60.4493L37.3044+60.4493L36.5573+62.6685L34.1989+62.6685L38.0515+51.8726Z" fill="#ffffff" opacity="1"/>
<path d="M45.7932+51.8873L53.447+51.8873L53.447+53.7842L48.0344+53.7842L48.0344+56.2672L52.7732+56.2672L52.7732+58.1422L48.0344+58.1422L48.0344+62.6685L45.7932+62.6685L45.7932+51.8873Z" opacity="1" fill="#ffffff"/>
<path fill="#ffffff" d="M62.9392+53.7842L57.2263+53.7842L57.2263+56.0767L62.4704+56.0767L62.4704+57.9517L57.2263+57.9517L57.2263+60.7276L63.2028+60.7276L63.2028+62.6685L55.0217+62.6685L55.0217+51.8726L62.9392+51.8726L62.9392+53.7842Z" opacity="1"/>
<path d="M26.5891+74.336C26.6574+74.8292+26.7917+75.1978+26.9919+75.442C27.3581+75.8863+27.9856+76.1085+28.8742+76.1085C29.4065+76.1085+29.8386+76.0499+30.1706+75.9327C30.8005+75.7081+31.1154+75.2906+31.1154+74.6802C31.1154+74.3238+30.9592+74.0479+30.6467+73.8526C30.3342+73.6622+29.8435+73.4937+29.1745+73.3472L28.0319+73.0909C26.9089+72.837+26.1325+72.5611+25.7028+72.2632C24.9753+71.7652+24.6115+70.9864+24.6115+69.9268C24.6115+68.96+24.9631+68.1568+25.6662+67.5172C26.3694+66.8775+27.4021+66.5577+28.7644+66.5577C29.9021+66.5577+30.8725+66.8592+31.6757+67.4622C32.479+68.0652+32.9001+68.9405+32.9392+70.088L30.7712+70.088C30.7321+69.4385+30.4489+68.9771+29.9216+68.7037C29.57+68.523+29.133+68.4327+28.6106+68.4327C28.0295+68.4327+27.5656+68.5499+27.219+68.7842C26.8723+69.0186+26.6989+69.3458+26.6989+69.7657C26.6989+70.1514+26.8698+70.4395+27.2116+70.6299C27.4314+70.7569+27.9001+70.9058+28.6179+71.0767L30.4782+71.5235C31.2937+71.7188+31.9089+71.98+32.3239+72.3072C32.9685+72.815+33.2907+73.5499+33.2907+74.5118C33.2907+75.4981+32.9135+76.3172+32.1591+76.9691C31.4048+77.6209+30.3391+77.9468+28.9621+77.9468C27.5559+77.9468+26.4499+77.6258+25.6443+76.9837C24.8386+76.3416+24.4358+75.459+24.4358+74.336L26.5891+74.336Z" opacity="1" fill="#ffffff"/>
<path d="M36.4328+66.8726L37.861+73.0543L38.1687+74.7755L38.4836+73.0909L39.6994+66.8726L42.0798+66.8726L43.3615+73.0543L43.6911+74.7755L44.0207+73.1202L45.4636+66.8726L47.7561+66.8726L44.7165+77.6685L42.5632+77.6685L41.2595+71.355L40.8786+69.2676L40.4978+71.355L39.1941+77.6685L37.0993+77.6685L34.0378+66.8726L36.4328+66.8726Z" opacity="1" fill="#ffffff"/>
<path opacity="1" fill="#ffffff" d="M52.07+73.5889L54.8093+73.5889L53.4616+69.3409L52.07+73.5889ZM52.2092+66.8726L54.758+66.8726L58.5813+77.6685L56.135+77.6685L55.4392+75.4493L51.4621+75.4493L50.7151+77.6685L48.3567+77.6685L52.2092+66.8726Z"/>
<path fill="#ffffff" opacity="1" d="M66.03+70.3077C66.03+69.7462+65.8823+69.3458+65.5869+69.1065C65.2915+68.8673+64.8777+68.7476+64.3454+68.7476L62.2434+68.7476L62.2434+71.9263L64.3454+71.9263C64.8777+71.9263+65.2915+71.7969+65.5869+71.5381C65.8823+71.2794+66.03+70.8692+66.03+70.3077ZM68.2639+70.293C68.2639+71.5674+67.9416+72.4683+67.2971+72.9957C66.6526+73.523+65.7321+73.7867+64.5359+73.7867L62.2434+73.7867L62.2434+77.6685L60.0022+77.6685L60.0022+66.8726L64.7043+66.8726C65.7883+66.8726+66.6526+67.1509+67.2971+67.7076C67.9416+68.2642+68.2639+69.126+68.2639+70.293Z"/>
<path opacity="1" d="M76.0349+70.3077C76.0349+69.7462+75.8872+69.3458+75.5918+69.1065C75.2964+68.8673+74.8825+68.7476+74.3503+68.7476L72.2483+68.7476L72.2483+71.9263L74.3503+71.9263C74.8825+71.9263+75.2964+71.7969+75.5918+71.5381C75.8872+71.2794+76.0349+70.8692+76.0349+70.3077ZM78.2688+70.293C78.2688+71.5674+77.9465+72.4683+77.302+72.9957C76.6574+73.523+75.737+73.7867+74.5407+73.7867L72.2483+73.7867L72.2483+77.6685L70.007+77.6685L70.007+66.8726L74.7092+66.8726C75.7932+66.8726+76.6574+67.1509+77.302+67.7076C77.9465+68.2642+78.2688+69.126+78.2688+70.293Z" fill="#ffffff"/>
<path d="M87.9441+68.7842L82.2312+68.7842L82.2312+71.0767L87.4753+71.0767L87.4753+72.9517L82.2312+72.9517L82.2312+75.7276L88.2077+75.7276L88.2077+77.6685L80.0266+77.6685L80.0266+66.8726L87.9441+66.8726L87.9441+68.7842Z" fill="#ffffff" opacity="1"/>
<path opacity="1" fill="#ffffff" d="M92.2214+68.7476L92.2214+71.648L94.7776+71.648C95.2854+71.648+95.6662+71.5894+95.9201+71.4722C96.3694+71.2672+96.594+70.8619+96.594+70.2564C96.594+69.6021+96.3767+69.1627+95.9421+68.9381C95.698+68.8111+95.3318+68.7476+94.8435+68.7476L92.2214+68.7476ZM95.3122+66.8726C96.0691+66.8873+96.6513+66.98+97.059+67.1509C97.4668+67.3218+97.8122+67.5733+98.0954+67.9053C98.3298+68.1788+98.5153+68.4815+98.6521+68.8135C98.7888+69.1456+98.8571+69.524+98.8571+69.9488C98.8571+70.4615+98.7277+70.9656+98.469+71.4612C98.2102+71.9569+97.7829+72.3072+97.1872+72.5123C97.6853+72.7125+98.0381+72.9969+98.2456+73.3655C98.4531+73.7342+98.5569+74.2969+98.5569+75.0538L98.5569+75.7789C98.5569+76.272+98.5764+76.6065+98.6154+76.7823C98.674+77.0606+98.8108+77.2657+99.0256+77.3975L99.0256+77.6685L96.5427+77.6685C96.4743+77.4293+96.4255+77.2364+96.3962+77.0899C96.3376+76.7872+96.3059+76.4771+96.301+76.1597L96.2863+75.1563C96.2766+74.4678+96.1508+74.0089+95.9091+73.7794C95.6674+73.5499+95.2146+73.4351+94.5505+73.4351L92.2214+73.4351L92.2214+77.6685L90.0168+77.6685L90.0168+66.8726L95.3122+66.8726Z"/>
</g>
</g>
</svg>
